<?xml version="1.0" standalone="no"?><!DOCTYPE svg PUBLIC "-//W3C//DTD SVG 1.1//EN" "http://www.w3.org/Graphics/SVG/1.1/DTD/svg11.dtd"><svg height="366" node-id="1" sillyvg="true" template-height="366" template-width="327" version="1.1" viewBox="0 0 327 366" width="327" xmlns="http://www.w3.org/2000/svg" xmlns:xlink="http://www.w3.org/1999/xlink"><defs node-id="29"><linearGradient gradientUnits="userSpaceOnUse" id="linear-gradient" node-id="5" spreadMethod="pad" x1="163.32" x2="163.32" y1="366.42" y2="6.57"><stop offset="0" stop-color="#111d45"></stop><stop offset="1" stop-color="#2970ff"></stop></linearGradient></defs><g node-id="90"><g node-id="91"><path d="M 270.27 2.00 C 255.65 46.44 214.94 68.49 214.94 68.49 C 218.44 84.90 234.11 90.60 234.11 90.60 C 280.59 64.24 270.27 2.00 270.27 2.00 Z M 59.87 0.00 C 59.87 0.00 49.55 62.24 96.00 88.60 C 96.00 88.60 111.67 82.90 115.17 66.49 C 115.20 66.49 74.49 44.44 59.87 0.00 Z" fill="#ffae00" fill-rule="evenodd" group-id="1,2" node-id="41" stroke="none" target-height="90.6" target-width="231.04" target-x="49.55" target-y="0"></path></g><path d="M 324.00 242.10 L 319.29 242.10 C 319.10 242.10 318.91 242.08 318.73 242.04 C 318.54 242.76 318.31 243.50 318.05 244.25 L 318.17 244.25 L 323.50 245.73 C 325.16 246.19 326.13 247.90 325.67 249.56 C 325.21 251.22 323.50 252.19 321.84 251.73 L 316.50 250.25 C 316.18 250.16 315.88 250.01 315.61 249.82 C 315.09 250.82 314.54 251.82 313.97 252.74 L 318.32 254.89 C 319.00 255.22 319.52 255.81 319.77 256.52 C 320.01 257.24 319.96 258.02 319.62 258.70 C 318.92 260.11 317.21 260.69 315.80 260.00 L 311.26 257.76 C 311.08 257.66 310.90 257.55 310.74 257.42 C 310.09 258.26 309.38 259.06 308.63 259.81 C 308.78 259.93 308.92 260.07 309.04 260.23 L 311.39 263.47 C 312.12 264.47 311.90 265.88 310.89 266.61 C 309.89 267.33 308.49 267.11 307.76 266.11 L 305.41 262.88 C 305.25 262.66 305.14 262.41 305.07 262.15 C 304.84 262.19 304.62 262.19 304.39 262.15 C 301.68 261.76 293.20 258.15 284.96 254.50 C 280.21 293.05 267.57 309.81 257.03 317.06 C 257.25 325.78 257.73 350.58 256.42 355.20 C 256.43 355.22 256.43 355.25 256.42 355.27 C 257.15 355.63 257.68 356.29 257.88 357.07 L 258.47 359.35 C 258.66 360.07 258.55 360.83 258.18 361.47 C 257.80 362.12 257.19 362.58 256.47 362.77 L 255.88 362.92 C 254.38 363.31 252.86 362.41 252.46 360.92 L 251.87 358.64 L 251.87 358.64 C 251.31 358.85 250.72 359.04 250.09 359.22 C 250.09 359.27 250.09 359.32 250.14 359.37 L 250.73 361.65 C 251.12 363.15 250.22 364.67 248.73 365.07 L 248.14 365.22 C 247.42 365.41 246.66 365.30 246.02 364.93 C 245.37 364.55 244.91 363.94 244.72 363.22 L 244.13 360.94 C 244.09 360.75 244.06 360.56 244.05 360.37 L 243.70 360.37 L 243.50 363.00 C 243.45 363.95 243.03 364.84 242.33 365.48 C 241.62 366.12 240.69 366.45 239.74 366.40 L 238.96 366.40 C 236.98 366.30 235.46 364.62 235.56 362.64 L 235.68 360.39 C 234.76 360.29 233.84 360.13 232.94 359.91 L 231.48 362.96 C 230.40 365.24 227.68 366.21 225.40 365.13 L 224.49 364.70 C 222.22 363.61 221.25 360.89 222.33 358.61 L 223.98 355.15 C 224.23 354.60 224.60 354.12 225.05 353.72 C 222.85 345.43 221.59 336.91 221.30 328.34 C 209.02 330.59 190.17 332.50 162.47 331.80 C 136.27 331.14 119.00 329.37 107.79 327.55 C 107.47 336.04 106.19 344.48 104.00 352.69 C 104.45 353.09 104.81 353.58 105.07 354.13 L 106.70 357.60 C 107.22 358.69 107.28 359.95 106.87 361.09 C 106.46 362.23 105.62 363.16 104.52 363.67 L 103.62 364.10 C 101.34 365.18 98.62 364.20 97.54 361.92 L 96.10 358.86 C 95.22 359.06 94.30 359.22 93.35 359.34 L 93.46 361.58 C 93.51 362.54 93.17 363.47 92.52 364.18 C 91.86 364.88 90.96 365.30 90.00 365.33 L 89.22 365.33 C 87.28 365.42 85.61 363.94 85.48 362.00 L 85.35 359.41 L 85.01 359.41 C 85.00 359.60 84.97 359.79 84.92 359.97 L 84.33 362.25 C 84.14 362.97 83.68 363.59 83.04 363.96 C 82.39 364.34 81.63 364.44 80.91 364.25 L 80.31 364.10 C 78.82 363.70 77.92 362.18 78.31 360.68 L 78.91 358.40 C 78.93 358.35 78.95 358.30 78.97 358.25 C 78.34 358.07 77.74 357.87 77.18 357.66 L 77.18 357.66 L 76.58 359.94 C 76.39 360.66 75.93 361.27 75.28 361.65 C 74.64 362.02 73.88 362.13 73.16 361.94 L 72.57 361.78 C 71.85 361.59 71.24 361.13 70.86 360.48 C 70.49 359.84 70.38 359.08 70.57 358.36 L 71.17 356.08 C 71.38 355.30 71.91 354.64 72.64 354.29 L 72.64 354.22 C 71.39 349.71 71.89 326.12 72.14 316.82 C 61.53 309.27 49.00 292.20 44.41 253.30 C 35.41 257.38 25.27 261.74 22.26 262.17 C 22.03 262.20 21.81 262.20 21.58 262.17 C 21.51 262.43 21.40 262.67 21.24 262.89 L 18.89 266.12 C 18.43 266.81 17.64 267.19 16.81 267.11 C 15.99 267.04 15.28 266.52 14.95 265.76 C 14.63 265.00 14.74 264.13 15.25 263.48 L 17.60 260.25 C 17.72 260.09 17.86 259.94 18.02 259.82 C 17.27 259.07 16.56 258.27 15.90 257.44 C 15.74 257.56 15.57 257.68 15.39 257.77 L 10.84 260.00 C 9.44 260.64 7.78 260.05 7.10 258.67 C 6.42 257.29 6.96 255.61 8.32 254.89 L 12.67 252.74 C 12.10 251.80 11.55 250.82 11.04 249.83 C 10.76 250.02 10.46 250.16 10.14 250.25 L 4.81 251.73 C 3.15 252.19 1.44 251.22 0.97 249.57 C 0.51 247.91 1.48 246.19 3.14 245.73 L 8.48 244.25 L 8.60 244.25 C 8.33 243.50 8.10 242.76 7.91 242.04 C 7.73 242.08 7.54 242.10 7.36 242.10 L 2.65 242.10 C 1.19 242.10 0.00 240.91 0.00 239.45 C 0.00 237.99 1.19 236.80 2.65 236.80 L 7.36 236.80 C 7.62 236.80 7.88 236.85 8.12 236.93 C 8.15 236.08 8.26 235.24 8.45 234.42 L 6.22 231.25 C 5.61 230.42 5.49 229.32 5.92 228.38 C 6.35 227.44 7.25 226.80 8.28 226.72 C 9.31 226.63 10.30 227.11 10.88 227.97 L 13.80 232.11 C 13.87 232.22 13.93 232.33 13.98 232.45 C 24.50 230.54 34.37 225.98 42.63 219.19 C 42.63 216.28 42.63 213.31 42.75 210.19 C 45.67 95.80 65.83 2.23 170.55 6.73 C 265.17 9.48 283.94 100.24 286.74 210.29 C 286.84 214.14 286.87 217.84 286.86 221.43 C 294.54 226.96 303.34 230.72 312.65 232.43 C 312.71 232.32 312.77 232.21 312.84 232.10 L 315.75 227.95 C 316.69 226.75 318.40 226.50 319.65 227.38 C 320.89 228.25 321.23 229.95 320.42 231.24 L 318.28 234.24 C 318.85 234.96 319.19 235.83 319.28 236.75 L 324.00 236.75 C 325.46 236.75 326.65 237.94 326.65 239.40 C 326.65 240.86 325.46 242.05 324.00 242.05 Z" fill="url(#linear-gradient)" fill-rule="evenodd" group-id="1" node-id="44" stroke="none" target-height="364.22" target-width="326.65" target-x="0" target-y="2.23"></path><path d="M 90.42 67.80 C 94.56 67.80 98.30 70.29 99.88 74.12 C 101.47 77.94 100.59 82.35 97.66 85.27 C 94.73 88.20 90.32 89.07 86.50 87.47 C 82.67 85.88 80.19 82.14 80.20 78.00 C 80.22 72.37 84.79 67.81 90.42 67.80 Z" fill="#000000" fill-opacity="0.1" fill-rule="evenodd" group-id="1,3" node-id="48" stroke="none" target-height="21.269997" target-width="21.279999" target-x="80.19" target-y="67.8"></path><path d="M 90.34 64.70 C 94.48 64.70 98.21 67.19 99.80 71.01 C 101.38 74.83 100.51 79.23 97.59 82.16 C 94.66 85.09 90.26 85.97 86.44 84.38 C 82.61 82.80 80.12 79.07 80.12 74.93 C 80.12 69.28 84.69 64.71 90.34 64.70 Z" fill="#ffffff" fill-opacity="0.2" fill-rule="evenodd" group-id="1,4" node-id="53" stroke="none" target-height="21.270004" target-width="21.259995" target-x="80.12" target-y="64.7"></path><path d="M 228.24 81.33 C 228.24 81.33 238.44 70.25 252.84 74.33 L 252.00 76.50 C 252.00 76.50 244.72 74.50 242.74 76.90 C 242.74 76.90 248.36 77.13 250.65 78.72 L 249.31 80.72 C 249.31 80.72 237.21 75.50 229.54 83.41 Z" fill="#000000" fill-rule="evenodd" group-id="1" node-id="56" stroke="none" target-height="13.160004" target-width="24.59999" target-x="228.24" target-y="70.25"></path><path d="M 90.39 66.76 C 94.36 66.76 97.94 69.15 99.46 72.82 C 100.98 76.50 100.14 80.72 97.33 83.53 C 94.52 86.34 90.29 87.17 86.63 85.65 C 82.96 84.13 80.57 80.54 80.57 76.57 C 80.57 73.97 81.60 71.47 83.45 69.63 C 85.29 67.79 87.79 66.76 90.39 66.76 Z" fill="#000000" fill-rule="evenodd" group-id="1" node-id="58" stroke="none" target-height="20.409996" target-width="20.410004" target-x="80.57" target-y="66.76"></path><path d="M 86.75 76.86 C 86.75 76.86 86.86 73.42 89.65 72.03 C 92.44 70.64 89.44 69.30 88.74 69.46 C 88.04 69.62 83.00 70.28 84.00 75.31 C 85.00 80.34 86.45 78.00 86.75 76.86 Z" fill="#ffffff" fill-rule="evenodd" group-id="1" node-id="60" stroke="none" target-height="11.039993" target-width="9.440002" target-x="83" target-y="69.3"></path><path d="M 253.34 112.40 C 250.10 141.13 231.93 195.00 165.05 193.72 C 95.61 192.38 81.51 135.15 77.92 108.36 C 77.22 103.16 77.33 94.72 87.49 96.21 C 112.36 99.86 179.09 110.38 243.00 97.12 C 254.18 94.80 254.31 103.88 253.34 112.40 Z" fill="#7cbc01" fill-rule="evenodd" group-id="1" node-id="62" stroke="none" target-height="100.28" target-width="177.09" target-x="77.22" target-y="94.72"></path><path d="M 243.09 103.37 C 243.09 103.37 244.03 185.63 164.50 184.19 C 84.97 182.75 87.50 102.92 87.50 102.92 C 87.50 102.92 168.45 116.00 243.09 103.37 Z" fill="#580101" fill-rule="evenodd" group-id="1" node-id="64" stroke="none" target-height="82.71001" target-width="159.06" target-x="84.97" target-y="102.92"></path><path d="M 100.05 104.54 C 124.52 107.40 177.68 111.88 229.99 104.90 C 227.31 124.15 215.58 164.40 164.42 163.47 C 113.53 162.54 102.44 123.43 100.05 104.54 Z" fill="#480101" fill-rule="evenodd" group-id="1" node-id="66" stroke="none" target-height="59.859993" target-width="129.94" target-x="100.05" target-y="104.54"></path><path d="M 214.36 107.17 C 211.93 122.17 202.43 150.39 165.28 149.71 C 128.00 149.00 119.10 121.00 117.00 106.46 C 141.00 108.63 177.06 110.46 214.36 107.17 Z" fill="#3f0000" fill-rule="evenodd" group-id="1" node-id="68" stroke="none" target-height="43.93" target-width="97.36" target-x="117" target-y="106.46"></path><path d="M 165.36 136.79 C 133.97 136.32 128.45 116.18 127.50 108.10 C 147.26 109.73 175.04 110.90 203.87 108.53 C 202.68 116.90 196.59 137.26 165.36 136.79 Z" fill="#2d0000" fill-rule="evenodd" group-id="1" node-id="70" stroke="none" target-height="29.159996" target-width="76.369995" target-x="127.5" target-y="108.1"></path><path d="M 164.82 126.50 C 147.12 126.24 144.01 115.02 143.47 110.50 C 157.80 111.71 172.20 111.79 186.54 110.74 C 185.87 115.42 182.44 126.76 164.82 126.50 Z" fill="#160000" fill-rule="evenodd" group-id="1" node-id="72" stroke="none" target-height="16.260002" target-width="43.069992" target-x="143.47" target-y="110.5"></path><path d="M 203.67 116.43 C 201.46 116.42 199.30 115.80 197.43 114.64 C 195.41 118.34 191.59 120.71 187.38 120.88 C 183.16 121.04 179.17 118.99 176.86 115.46 C 174.37 119.21 169.99 121.25 165.51 120.74 C 161.04 120.23 157.23 117.26 155.64 113.05 C 153.05 115.45 149.53 116.59 146.03 116.16 C 142.53 115.73 139.39 113.78 137.45 110.83 C 134.72 114.94 129.74 116.96 124.92 115.92 C 120.09 114.87 116.40 110.97 115.61 106.10 C 139.92 108.33 177.11 110.28 215.46 106.76 C 214.35 112.39 209.41 116.44 203.67 116.43 Z M 97.20 131.36 C 101.19 131.39 104.90 133.40 107.11 136.73 C 109.31 140.05 109.72 144.25 108.20 147.94 C 109.71 147.39 111.31 147.11 112.92 147.12 C 120.62 147.16 126.84 153.42 126.84 161.12 C 126.84 161.82 126.78 162.52 126.66 163.21 C 128.76 162.01 131.14 161.39 133.56 161.40 C 141.07 161.45 147.20 167.41 147.46 174.91 C 150.49 171.76 155.00 170.51 159.23 171.65 C 163.45 172.78 166.72 176.13 167.76 180.38 C 168.69 176.65 171.35 173.60 174.91 172.16 C 178.47 170.72 182.50 171.08 185.76 173.11 C 186.63 168.94 189.65 165.55 193.69 164.20 C 197.73 162.84 202.18 163.73 205.39 166.53 C 204.06 162.85 204.60 158.75 206.85 155.55 C 209.09 152.35 212.76 150.44 216.67 150.44 C 217.22 150.45 217.77 150.49 218.31 150.57 C 218.31 150.22 218.31 149.86 218.31 149.50 C 218.34 142.90 223.71 137.56 230.31 137.56 C 232.25 137.56 234.17 138.04 235.88 138.96 C 227.11 160.96 207.65 184.82 164.49 184.04 C 117.80 183.19 99.40 155.32 92.17 132.45 C 93.75 131.72 95.46 131.35 97.20 131.36 Z" fill="#ffffff" fill-rule="evenodd" group-id="1" node-id="74" stroke="none" target-height="78.72001" target-width="143.71" target-x="92.17" target-y="106.1"></path><path d="M 92.55 132.66 C 92.55 132.52 92.55 132.45 92.55 132.45 C 92.55 132.45 115.46 184.00 166.93 182.00 C 206.75 180.45 229.02 151.61 235.61 141.53 C 226.61 162.70 207.19 185.17 165.01 184.41 C 117.58 183.58 99.46 155.26 92.55 132.66 Z" fill="#000000" fill-opacity="0.2" fill-rule="evenodd" group-id="1,5" node-id="78" stroke="none" target-height="52.72" target-width="143.06" target-x="92.55" target-y="132.45"></path><path d="M 81.00 89.90 C 88.27 86.36 93.23 91.13 93.23 91.13 C 93.23 91.13 79.43 88.13 74.00 101.54 C 74.00 101.54 73.72 93.44 81.00 89.90 Z M 88.50 95.50 C 90.50 95.79 160.68 103.92 241.55 97.05 C 241.55 97.05 245.10 96.37 243.08 98.05 C 243.08 98.05 180.49 115.05 85.69 96.76 C 86.27 95.80 87.39 95.30 88.49 95.50 Z M 160.76 182.11 C 241.30 184.11 242.96 103.43 242.96 103.43 C 244.47 112.82 242.26 190.43 160.96 187.21 C 79.66 183.99 87.96 102.80 87.96 102.80 C 87.96 102.80 95.00 180.44 160.75 182.11 Z M 242.99 91.11 L 242.99 91.11 L 242.99 91.11 L 243.43 90.92 L 244.57 90.50 C 245.55 90.17 246.55 89.90 247.57 89.69 C 248.04 89.60 248.52 89.55 249.00 89.55 C 249.24 89.56 249.48 89.58 249.71 89.62 L 250.09 89.69 L 250.28 89.69 L 250.48 89.75 C 251.98 90.22 253.42 90.86 254.78 91.64 C 257.67 95.00 256.35 101.28 256.07 103.50 C 255.82 96.88 254.73 94.06 251.34 92.27 C 249.62 91.46 247.74 91.02 245.84 90.98 C 245.12 90.95 244.40 90.97 243.69 91.04 C 243.43 91.04 243.22 91.04 243.09 91.04 C 243.07 91.08 243.04 91.11 243.00 91.13 Z M 256.11 103.52 C 256.11 103.78 256.11 104.05 256.11 104.32 C 256.00 104.33 256.00 104.00 256.10 103.54 Z" fill="#000000" fill-opacity="0.2" fill-rule="evenodd" group-id="1,6" node-id="83" stroke="none" target-height="104.06999" target-width="183.95001" target-x="73.72" target-y="86.36"></path><path d="M 186.42 324.77 C 186.42 324.77 142.42 333.06 122.51 305.40 C 102.60 277.74 126.11 241.96 150.31 234.95 C 174.51 227.94 196.95 242.52 203.49 266.31 C 210.03 290.10 178.80 314.38 162.29 298.74 C 145.78 283.10 148.00 269.12 159.46 258.50 C 170.92 247.88 191.33 263.83 187.73 278.99 C 184.13 294.15 171.07 283.99 174.46 279.47 C 177.85 274.95 169.58 264.73 164.66 269.35 C 159.74 273.97 161.15 283.04 165.35 287.50 C 169.55 291.96 190.86 300.92 193.35 274.65 C 195.57 250.79 142.68 230.65 130.35 272.96 C 118.02 315.27 176.43 315.17 191.93 311.38 C 204.60 308.29 214.17 304.88 215.93 308.81 C 220.62 319.54 186.42 324.77 186.42 324.77 Z" fill="#00a9b6" fill-opacity="0.34" fill-rule="evenodd" group-id="1,7" node-id="88" stroke="none" target-height="105.119995" target-width="118.02" target-x="102.6" target-y="227.94"></path></g></svg>