<?xml version="1.0" standalone="no"?><!DOCTYPE svg PUBLIC "-//W3C//DTD SVG 1.1//EN" "http://www.w3.org/Graphics/SVG/1.1/DTD/svg11.dtd"><svg height="427" node-id="1" sillyvg="true" template-height="427" template-width="177" version="1.1" viewBox="0 0 177 427" width="177" xmlns="http://www.w3.org/2000/svg" xmlns:xlink="http://www.w3.org/1999/xlink"><defs node-id="19"><linearGradient gradientUnits="userSpaceOnUse" id="linear-gradient" node-id="5" spreadMethod="pad" x1="88.09" x2="88.09" y1="427.21" y2="84.28"><stop offset="0" stop-color="#ff0066"></stop><stop offset="1" stop-color="#ffbe23"></stop></linearGradient><linearGradient gradientUnits="userSpaceOnUse" id="linear-gradient-2" node-id="8" spreadMethod="pad" x1="88.29" x2="88.29" y1="184.35" y2="0"><stop offset="0" stop-color="#302c39"></stop><stop offset="1" stop-color="#155b87"></stop></linearGradient></defs><g node-id="46"><path d="M 157.75 125.06 C 147.29 103.83 125.16 88.89 102.00 85.19 C 97.47 84.47 92.88 84.17 88.30 84.31 C 50.02 85.40 13.57 115.57 9.30 154.60 C 8.99 157.45 8.84 160.31 8.84 163.17 C 8.84 196.35 8.82 229.53 8.79 262.71 L 8.79 313.16 C 8.79 321.34 8.66 329.52 8.79 337.70 C 8.90 345.12 7.59 353.00 9.27 360.29 C 10.55 365.86 14.01 371.29 19.33 373.29 C 23.66 374.85 28.47 374.29 32.33 371.78 C 36.18 369.25 38.92 365.35 40.00 360.88 C 41.25 355.81 40.52 350.43 41.48 345.30 C 41.68 343.63 42.37 342.06 43.48 340.79 C 46.48 337.87 51.66 339.79 54.48 342.90 C 60.79 349.90 60.48 360.53 59.56 369.90 C 58.64 379.27 57.29 391.78 64.91 399.00 C 71.43 405.18 83.13 405.05 88.48 397.42 C 90.91 393.95 92.02 389.74 92.65 385.55 C 94.19 375.30 93.05 340.81 92.43 330.45 C 92.31 328.45 92.73 325.69 94.75 325.45 C 96.08 325.41 97.26 326.31 97.58 327.61 C 99.34 333.39 96.46 364.33 98.06 370.16 C 100.06 377.38 106.15 382.91 113.84 382.90 C 120.20 382.81 125.89 378.91 128.26 373.00 C 130.03 368.54 130.03 363.58 129.62 358.80 C 129.05 352.14 127.44 344.96 129.62 338.43 C 129.77 337.87 130.04 337.36 130.42 336.92 C 131.69 335.63 134.07 336.56 134.85 338.18 C 136.58 341.79 134.80 347.76 134.93 351.63 C 135.23 360.42 140.32 368.63 149.72 369.54 C 154.32 369.99 158.90 368.47 162.33 365.37 C 165.76 362.26 167.71 357.85 167.72 353.23 L 167.72 198.51 C 167.71 173.74 169.00 147.91 157.75 125.06 Z M 31.08 384.26 C 24.86 388.15 24.49 394.76 25.47 400.04 C 26.58 406.00 31.00 410.89 37.00 411.72 C 53.27 414.00 41.20 377.92 31.08 384.26 Z M 51.28 411.43 C 48.43 413.35 47.90 417.00 48.00 420.00 C 48.14 423.37 49.76 426.32 52.23 427.00 C 59.00 429.05 55.93 408.31 51.28 411.43 Z M 118.05 396.43 C 117.45 396.53 116.92 396.87 116.58 397.38 C 116.24 397.88 116.13 398.51 116.27 399.10 C 116.67 400.40 117.80 401.34 119.15 401.49 C 123.48 402.30 120.88 395.54 118.05 396.40 Z M 147.24 397.43 C 142.63 396.71 140.81 399.18 140.12 401.61 C 139.35 404.34 140.80 407.90 144.12 410.38 C 153.19 417.13 154.75 398.56 147.24 397.38 Z M 135.00 388.43 C 132.00 387.96 130.83 389.56 130.39 391.13 C 129.89 392.90 130.83 395.21 132.97 396.82 C 138.85 401.22 139.85 389.19 135.00 388.43 Z" fill="url(#linear-gradient)" fill-rule="nonzero" group-id="1" node-id="36" stroke="none" target-height="344.88" target-width="161.41" target-x="7.59" target-y="84.17"></path><path d="M 125.00 152.28 C 125.00 170.19 110.49 184.70 92.58 184.70 C 74.67 184.70 60.16 170.19 60.16 152.28 C 60.16 134.37 74.67 119.86 92.58 119.86 C 110.49 119.86 125.00 134.37 125.00 152.28 Z" fill="#ffffff" fill-rule="nonzero" group-id="1" node-id="38" stroke="none" target-height="64.84" target-width="64.84" target-x="60.16" target-y="119.86"></path><path d="M 94.39 159.00 C 94.39 162.58 92.24 165.80 88.94 167.18 C 85.63 168.55 81.83 167.79 79.30 165.26 C 76.77 162.73 76.01 158.93 77.38 155.62 C 78.76 152.32 81.98 150.17 85.56 150.17 C 90.44 150.17 94.39 154.12 94.39 159.00 Z" fill="#2d2521" fill-rule="nonzero" group-id="1" node-id="40" stroke="none" target-height="18.380005" target-width="18.379997" target-x="76.01" target-y="150.17"></path><path d="M 90.34 155.31 C 90.34 156.18 89.63 156.89 88.76 156.89 C 87.89 156.89 87.18 156.18 87.18 155.31 C 87.18 154.44 87.89 153.73 88.76 153.73 C 89.63 153.73 90.34 154.44 90.34 155.31 Z" fill="#ffffff" fill-rule="nonzero" group-id="1" node-id="42" stroke="none" target-height="3.1600037" target-width="3.159996" target-x="87.18" target-y="153.73"></path><path d="M 176.58 88.30 C 176.58 39.54 137.05 0.01 88.29 0.01 C 39.53 0.01 0.00 39.54 0.00 88.30 L 0.00 155.00 L 9.31 155.00 L 9.31 182.20 C 9.31 183.38 10.26 184.33 11.44 184.33 C 12.62 184.33 13.57 183.38 13.57 182.20 L 13.57 155.00 L 41.21 155.00 L 42.73 137.18 L 46.00 154.68 L 119.22 154.87 L 120.30 132.22 L 120.82 154.87 L 163.89 154.99 L 163.89 182.22 C 163.89 183.40 164.84 184.35 166.02 184.35 C 167.20 184.35 168.15 183.40 168.15 182.22 L 168.15 155.00 L 176.62 155.00 Z" fill="url(#linear-gradient-2)" fill-rule="nonzero" group-id="1" node-id="44" stroke="none" target-height="184.34001" target-width="176.62" target-x="0" target-y="0.01"></path></g></svg>