<?xml version="1.0" standalone="no"?><!DOCTYPE svg PUBLIC "-//W3C//DTD SVG 1.1//EN" "http://www.w3.org/Graphics/SVG/1.1/DTD/svg11.dtd"><svg height="433" node-id="1" sillyvg="true" template-height="433" template-width="266" version="1.1" viewBox="0 0 266 433" width="266" xmlns="http://www.w3.org/2000/svg" xmlns:xlink="http://www.w3.org/1999/xlink"><defs node-id="32"><linearGradient gradientUnits="userSpaceOnUse" id="linear-gradient" node-id="5" spreadMethod="pad" x1="133.21" x2="133.21" y1="432.94" y2="0"><stop offset="0" stop-color="#155b87"></stop><stop offset="0.0000000000000002220446" stop-color="#165984"></stop><stop offset="1" stop-color="#302c39"></stop></linearGradient><linearGradient gradientUnits="userSpaceOnUse" id="linear-gradient-2" node-id="9" spreadMethod="pad" x1="161.53" x2="161.53" y1="16.09" y2="115.1"><stop offset="0" stop-color="#ffffff"></stop><stop offset="0.25" stop-color="#f8f8f8"></stop><stop offset="0.67" stop-color="#f1f1f1"></stop><stop offset="0.77" stop-color="#ededed"></stop><stop offset="0.88" stop-color="#e0e0e0"></stop><stop offset="0.98" stop-color="#cbcbcb"></stop><stop offset="1" stop-color="#c7c7c7"></stop></linearGradient></defs><g node-id="90"><path d="M 264.21 239.85 C 266.04 237.99 266.79 235.32 266.21 232.78 L 245.92 142.31 C 245.71 141.35 245.31 140.45 244.75 139.64 C 243.96 109.91 242.13 81.20 238.37 54.51 C 234.37 30.74 212.28 6.51 189.05 2.51 C 183.86 1.78 178.62 1.21 173.36 0.80 C 170.72 0.59 168.09 0.43 165.45 0.30 L 163.45 0.22 L 161.45 0.15 C 160.13 0.15 158.81 0.07 157.50 0.05 L 153.50 0.05 C 152.19 0.05 150.87 0.05 149.56 0.05 C 146.93 0.05 144.32 0.17 141.71 0.29 C 136.50 0.53 131.33 0.93 126.25 1.49 C 103.81 4.71 82.00 28.82 77.25 53.14 C 75.25 65.62 73.82 78.49 72.73 91.64 L 35.49 54.64 L 38.00 49.23 C 38.70 47.72 38.05 45.92 36.54 45.22 C 35.03 44.52 33.23 45.17 32.53 46.68 L 30.31 51.46 C 28.73 51.20 27.11 51.43 25.66 52.12 L 21.43 47.63 C 20.11 46.23 17.91 46.17 16.51 47.49 C 15.10 48.80 15.04 51.01 16.36 52.41 L 20.44 56.74 L 19.34 57.85 L 14.12 52.31 C 12.66 50.76 10.21 50.69 8.66 52.15 C 7.11 53.61 7.04 56.06 8.50 57.61 L 13.80 63.22 C 13.83 63.26 13.87 63.29 13.91 63.32 L 12.58 64.65 L 8.32 60.14 C 7.54 59.27 6.34 58.90 5.20 59.16 C 4.06 59.42 3.15 60.28 2.83 61.40 C 2.50 62.52 2.80 63.74 3.62 64.57 L 8.00 69.24 L 6.86 70.41 L 4.45 67.85 C 3.46 66.92 1.91 66.92 0.92 67.85 C -0.08 68.79 -0.17 70.33 0.70 71.38 L 4.09 75.00 C 3.56 77.54 4.36 80.17 6.20 82.00 L 70.10 145.49 C 70.00 149.71 69.92 153.94 69.86 158.17 C 69.63 171.97 75.53 186.05 84.94 198.72 C 92.35 208.53 101.94 217.45 112.37 222.13 C 115.62 223.74 117.49 227.23 117.05 230.83 C 116.86 233.17 117.14 430.39 117.14 430.39 C 117.36 431.71 118.42 432.72 119.74 432.88 C 121.97 433.05 125.21 432.68 125.06 430.02 C 124.91 427.36 124.91 237.91 124.91 235.47 C 124.91 233.03 126.59 226.70 134.54 227.23 L 135.24 227.23 C 151.39 229.32 167.75 229.25 183.88 227.02 L 184.28 227.02 C 192.23 226.48 193.79 231.41 193.79 233.85 C 193.79 236.29 193.79 425.74 193.64 428.40 C 193.49 431.06 196.73 431.40 198.96 431.26 C 200.28 431.10 201.34 430.09 201.56 428.77 C 201.56 428.77 201.85 231.54 201.65 229.21 C 201.20 225.41 203.31 221.77 206.84 220.28 L 206.67 220.28 C 211.52 217.40 216.01 213.95 220.05 210.00 L 226.43 238.43 L 221.52 240.58 C 219.99 241.25 219.30 243.03 219.97 244.56 C 220.63 246.08 222.41 246.78 223.94 246.11 L 228.29 244.20 C 229.55 246.03 231.53 247.23 233.74 247.49 L 234.89 253.55 C 235.25 255.44 237.07 256.68 238.96 256.32 C 240.85 255.96 242.09 254.14 241.73 252.25 L 240.62 246.40 L 242.14 246.06 L 243.57 253.54 C 243.79 254.93 244.75 256.10 246.07 256.58 C 247.40 257.06 248.88 256.78 249.94 255.84 C 251.00 254.91 251.46 253.48 251.15 252.10 L 249.71 244.51 C 249.71 244.46 249.71 244.42 249.71 244.38 L 251.55 243.96 L 252.71 250.06 C 252.88 251.24 253.68 252.23 254.79 252.64 C 255.91 253.05 257.16 252.82 258.05 252.03 C 258.94 251.24 259.33 250.02 259.05 248.86 L 257.85 242.55 L 259.46 242.19 L 260.12 245.65 C 260.40 247.04 261.75 247.95 263.14 247.68 C 264.54 247.40 265.45 246.04 265.17 244.65 Z" fill="url(#linear-gradient)" fill-rule="evenodd" group-id="1" node-id="61" stroke="none" target-height="433" target-width="266.96002" target-x="-0.17" target-y="0.05"></path><path d="M 161.53 16.09 C 188.87 16.10 211.03 38.27 211.02 65.61 C 211.01 92.95 188.84 115.11 161.50 115.11 C 134.16 115.11 112.00 92.94 112.00 65.60 C 112.00 52.47 117.22 39.87 126.51 30.58 C 135.80 21.30 148.40 16.08 161.53 16.09 Z" fill="url(#linear-gradient-2)" fill-rule="evenodd" group-id="1" node-id="63" stroke="none" target-height="99.03" target-width="99.03" target-x="112" target-y="16.08"></path><path d="M 161.53 58.30 C 164.48 58.30 167.15 60.07 168.28 62.80 C 169.41 65.53 168.79 68.67 166.71 70.76 C 164.62 72.85 161.48 73.47 158.75 72.35 C 156.02 71.22 154.24 68.55 154.24 65.60 C 154.24 63.66 155.00 61.81 156.37 60.44 C 157.74 59.07 159.59 58.30 161.53 58.30 Z" fill="#000000" fill-rule="evenodd" group-id="1" node-id="65" stroke="none" target-height="15.170002" target-width="15.169998" target-x="154.24" target-y="58.3"></path><path d="M 159.73 61.16 C 159.91 63.08 158.80 64.37 157.38 63.69 C 155.96 63.01 153.71 63.08 153.38 61.62 C 153.28 60.82 153.51 60.01 154.02 59.39 C 154.53 58.77 155.28 58.38 156.08 58.33 C 156.94 58.21 157.82 58.44 158.50 58.98 C 159.19 59.51 159.64 60.30 159.74 61.16 Z" fill="#ffffff" fill-rule="evenodd" group-id="1" node-id="67" stroke="none" target-height="6.1600037" target-width="6.630005" target-x="153.28" target-y="58.21"></path><g node-id="91"><path d="M 113.34 61.18 C 113.30 81.02 125.40 98.87 143.85 106.19 C 162.29 113.50 183.33 108.80 196.91 94.32 C 210.48 79.85 213.82 58.55 205.34 40.61 C 220.86 62.97 217.08 93.43 196.57 111.32 C 176.05 129.20 145.36 128.79 125.32 110.37 C 105.29 91.94 102.32 61.39 118.44 39.45 C 115.06 46.19 113.32 53.64 113.34 61.18 Z" fill="#000000" fill-opacity="0.05" fill-rule="evenodd" group-id="1,2" node-id="71" stroke="none" target-height="89.75" target-width="118.54" target-x="102.32" target-y="39.45"></path></g><path d="M 195.09 123.58 C 195.09 123.58 160.16 137.46 123.51 121.92 C 123.51 121.92 119.88 120.01 119.10 122.30 C 118.42 124.30 111.75 173.07 157.86 172.68 C 208.87 172.25 200.33 118.79 195.09 123.58 Z" fill="#8c225f" fill-rule="evenodd" group-id="1" node-id="74" stroke="none" target-height="54.280006" target-width="97.119995" target-x="111.75" target-y="118.79"></path><path d="M 190.38 127.79 C 190.38 127.79 158.44 138.47 125.95 126.45 C 125.95 126.45 123.07 125.12 123.07 127.01 C 123.07 128.90 117.91 168.53 157.77 168.24 C 202.39 167.91 195.00 124.07 190.38 127.79 Z" fill="#2d0000" fill-rule="evenodd" group-id="1" node-id="76" stroke="none" target-height="44.46" target-width="84.479996" target-x="117.91" target-y="124.07"></path><path d="M 129.49 132.77 L 131.49 128.06 C 153.59 134.62 174.62 131.44 184.49 129.18 L 185.34 134.58 C 185.34 134.58 148.94 142.35 129.49 132.77 Z" fill="#ffffff" fill-rule="evenodd" group-id="1" node-id="78" stroke="none" target-height="14.290009" target-width="55.84999" target-x="129.49" target-y="128.06"></path><path d="M 157.43 144.66 C 165.43 144.66 171.88 148.82 171.88 153.96 C 171.88 159.10 165.41 163.26 157.43 163.26 C 149.45 163.26 143.00 159.09 143.00 154.00 C 143.00 148.91 149.45 144.66 157.43 144.66 Z" fill="#150000" fill-rule="evenodd" group-id="1" node-id="80" stroke="none" target-height="18.59999" target-width="28.880005" target-x="143" target-y="144.66"></path><path d="M 143.11 162.88 C 143.33 156.74 147.91 152.62 151.32 152.60 C 154.73 152.58 156.14 154.45 156.14 154.45 C 154.98 155.45 154.16 156.79 153.81 158.28 C 153.81 158.28 155.75 153.35 162.45 153.80 C 171.92 154.44 171.75 163.55 171.75 163.55 C 155.34 168.00 143.11 162.88 143.11 162.88 Z" fill="#d0377f" fill-rule="evenodd" group-id="1" node-id="82" stroke="none" target-height="15.419998" target-width="28.809998" target-x="143.11" target-y="152.58"></path><path d="M 176.40 164.79 C 171.52 166.97 165.40 168.32 157.67 168.38 C 150.15 168.43 144.24 167.07 139.59 164.81 C 140.01 163.45 141.33 162.58 142.75 162.72 C 146.21 162.72 157.12 166.00 168.70 162.96 C 174.40 161.46 176.00 163.24 176.40 164.79 Z" fill="#ffffff" fill-rule="evenodd" group-id="1" node-id="84" stroke="none" target-height="6.969986" target-width="36.809998" target-x="139.59" target-y="161.46"></path><path d="M 191.61 128.46 C 191.40 128.23 191.07 128.15 190.78 128.26 C 188.80 128.96 186.78 129.54 184.73 129.97 L 184.54 131.12 C 156.64 137.76 131.00 130.06 131.00 130.06 L 131.62 128.86 C 131.62 128.86 126.73 127.58 124.97 126.86 C 123.21 126.14 123.05 128.21 123.05 128.21 C 122.50 125.61 124.29 125.67 124.29 125.67 C 157.04 137.67 188.91 127.38 191.09 127.29 C 193.27 127.20 193.21 130.97 193.21 130.97 C 192.77 130.08 192.24 129.23 191.61 128.46 Z M 155.30 171.89 C 187.66 174.29 197.42 147.32 197.42 147.32 C 197.42 147.32 193.06 174.32 159.32 174.63 C 117.94 175.05 118.57 137.74 118.57 137.74 C 118.57 137.74 122.93 169.50 155.30 171.89 Z M 167.76 175.40 C 154.35 181.66 144.44 174.80 144.44 174.80 C 154.72 177.93 167.76 175.40 167.76 175.40 Z" fill="#000000" fill-opacity="0.2" fill-rule="evenodd" group-id="1,3" node-id="88" stroke="none" target-height="56.050003" target-width="79.479996" target-x="117.94" target-y="125.61"></path></g></svg>